<?xml version="1.0" encoding="UTF-8"?>
<svg width="33px" height="33px" viewBox="0 0 33 33" version="1.1" xmlns="http://www.w3.org/2000/svg" xmlns:xlink="http://www.w3.org/1999/xlink">
    <title>编组</title>
    <g id="图标" stroke="none" stroke-width="1" fill="none" fill-rule="evenodd">
        <g id="画板" transform="translate(-113.000000, -360.000000)" fill="#5584FF" fill-rule="nonzero">
            <g id="编组-21备份" transform="translate(113.184222, 360.939880)">
                <g id="编组" transform="translate(0.537856, 4.210526)">
                    <path d="M30.8056347,19.5413777 L26.4365944,1.98719814 C26.1485697,0.828531571 25.1079227,0.0153249507 23.9139938,0.0159284565 L6.99436533,0.0159284565 C5.7980805,0.0159284565 4.76303406,0.827321981 4.47176471,1.98719814 L0.102724458,19.5413777 C-0.0949226006,20.3319659 0.0819195046,21.1537616 0.58123839,21.7987152 C1.08055728,22.4436687 1.83993808,22.8077554 2.65653251,22.8077554 L28.2518266,22.8077554 C29.0684211,22.8077554 29.8226006,22.4384675 30.3271207,21.7987152 C30.8316409,21.1589628 31.0032817,20.3371672 30.8056347,19.5413777 L30.8056347,19.5413777 Z M6.49504644,2.4969195 C6.55226006,2.26806502 6.7603096,2.10682663 6.99956656,2.10682663 L23.919195,2.10682663 C24.158452,2.10682663 24.3613003,2.26806502 24.4237152,2.4969195 L26.9671207,12.7173529 L20.6580186,12.7173529 C20.3147368,12.7173529 19.9974613,12.8837926 19.8050155,13.1646594 L17.9481734,15.838096 L12.4088545,15.838096 L10.2919505,13.1178483 C10.0950109,12.8640552 9.79139387,12.7160899 9.4701548,12.7173529 L3.95164087,12.7173529 L6.49504644,2.4969195 L6.49504644,2.4969195 Z M28.6887307,20.5192105 C28.6263158,20.5972291 28.4858824,20.7324613 28.2518266,20.7324613 L2.65653251,20.7324613 C2.48641445,20.7324613 2.32579951,20.6540166 2.22114623,20.5198979 C2.11649295,20.3857791 2.07947684,20.2109195 2.12080495,20.0458978 L3.42631579,14.7926471 L8.96043344,14.7926471 L11.0773375,17.5128947 C11.2749845,17.7677554 11.5766563,17.9133901 11.8991331,17.9133901 L18.4891022,17.9133901 C18.8323839,17.9133901 19.1496594,17.7469505 19.3421053,17.4660836 L21.1989474,14.7926471 L27.4768421,14.7926471 L28.7823529,20.0458978 C28.8447678,20.2747523 28.7511455,20.441192 28.6887307,20.5192105 L28.6887307,20.5192105 Z" id="形状"></path>
                    <path d="M9.38996904,11.0959752 L9.38996904,9.3622291 L10.1597523,8.63405573 L12.3442724,11.0959752 L13.1071207,11.0959752 L10.5550464,8.26650155 L12.7950464,6.14439628 L12.0530031,6.14439628 L9.38996904,8.71727554 L9.38996904,6.14439628 L8.82130031,6.14439628 L8.82130031,11.0959752 L9.38996904,11.0959752 Z M15.1876161,11.193065 C15.7562848,11.193065 16.2001238,11.0543653 16.5191331,10.7839009 C16.8242724,10.5203715 16.9768421,10.1666873 16.9768421,9.72978328 C16.9768421,9.41077399 16.8797523,9.13337461 16.6855728,8.89758514 C16.5052632,8.67566563 16.2833437,8.53003096 16.0267492,8.4676161 L16.0267492,8.45374613 C16.2833437,8.36359133 16.4775232,8.21795666 16.6162229,8.02377709 C16.7410526,7.84346749 16.8034675,7.62154799 16.8034675,7.35801858 C16.8034675,6.99739938 16.6647678,6.69226006 16.4012384,6.4495356 C16.109969,6.17907121 15.700805,6.0473065 15.1876161,6.0473065 C14.6674923,6.0473065 14.2652632,6.17907121 13.9739938,6.4495356 C13.7035294,6.69226006 13.5717647,6.99739938 13.5717647,7.35801858 C13.5717647,7.62154799 13.6341796,7.84346749 13.7590093,8.02377709 C13.890774,8.21795666 14.0849536,8.36359133 14.348483,8.45374613 L14.348483,8.4676161 C14.0849536,8.53003096 13.869969,8.67566563 13.6896594,8.89758514 C13.4954799,9.13337461 13.3983901,9.41077399 13.3983901,9.72978328 C13.3983901,10.1666873 13.5509598,10.5203715 13.8560991,10.7839009 C14.1681734,11.0543653 14.6120124,11.193065 15.1876161,11.193065 Z M15.1876161,8.26650155 C14.799257,8.26650155 14.5149226,8.16941176 14.334613,7.98910217 C14.1820433,7.83653251 14.1057585,7.62848297 14.1057585,7.37882353 C14.1057585,7.13609907 14.1889783,6.93498452 14.3623529,6.78241486 C14.5565325,6.60210526 14.8339319,6.51195046 15.1876161,6.51195046 C15.5343653,6.51195046 15.8117647,6.60210526 16.0128793,6.78241486 C16.1793189,6.93498452 16.2694737,7.13609907 16.2694737,7.37882353 C16.2694737,7.62848297 16.1931889,7.83653251 16.0406192,7.98910217 C15.8533746,8.16941176 15.5690402,8.26650155 15.1876161,8.26650155 Z M15.1876161,10.7284211 C14.785387,10.7284211 14.4733127,10.6313313 14.2652632,10.4440867 C14.0572136,10.2637771 13.9601238,10.0210526 13.9601238,9.72978328 C13.9601238,9.43157895 14.0572136,9.18885449 14.2652632,9.00854489 C14.4802477,8.80743034 14.785387,8.71034056 15.1876161,8.71034056 C15.5829102,8.71034056 15.8949845,8.80743034 16.116904,9.00854489 C16.3110836,9.18885449 16.4151084,9.43157895 16.4151084,9.72978328 C16.4151084,10.0210526 16.3110836,10.2568421 16.116904,10.4371517 C15.8949845,10.6313313 15.5898452,10.7284211 15.1876161,10.7284211 Z M19.5081115,11.193065 C20.0975851,11.193065 20.5622291,11.0682353 20.9089783,10.8255108 C21.2557276,10.5758514 21.4291022,10.2291022 21.4291022,9.79913313 C21.4291022,9.34835913 21.2210526,9.00160991 20.8118885,8.75195046 C20.603839,8.62712074 20.17387,8.4676161 19.5219814,8.27343653 C19.0434675,8.13473684 18.7383282,8.03071207 18.6134985,7.96136223 C18.3291641,7.80879257 18.1904644,7.60767802 18.1904644,7.35801858 C18.1904644,7.07368421 18.3083591,6.86563467 18.5441486,6.72693498 C18.7521981,6.60210526 19.0365325,6.54662539 19.4040867,6.54662539 C19.8063158,6.54662539 20.1183901,6.6298452 20.3403096,6.8101548 C20.5552941,6.98352941 20.6939938,7.24705882 20.7564087,7.60767802 L21.3181424,7.60767802 C21.2695975,7.08755418 21.0823529,6.69226006 20.7494737,6.42873065 C20.4304644,6.17213622 19.9866254,6.0473065 19.4318266,6.0473065 C18.9186378,6.0473065 18.4956037,6.15826625 18.1696594,6.38018576 C17.8021053,6.61597523 17.6217957,6.95578947 17.6217957,7.38575851 C17.6217957,7.80185759 17.8090402,8.12086687 18.1904644,8.34278638 C18.349969,8.42600619 18.7313932,8.56470588 19.3278019,8.74501548 C19.8826006,8.90452012 20.2362848,9.02241486 20.3749845,9.10563467 C20.7009288,9.27900929 20.8673684,9.52173375 20.8673684,9.83380805 C20.8673684,10.0973375 20.7425387,10.305387 20.4928793,10.4579567 C20.2432198,10.6105263 19.9103406,10.6868111 19.5081115,10.6868111 C19.0642724,10.6868111 18.7313932,10.5897214 18.5025387,10.4094118 C18.2528793,10.2082972 18.1003096,9.88928793 18.0517647,9.45931889 L17.490031,9.45931889 C17.5316409,10.0695975 17.7466254,10.5203715 18.1349845,10.8185759 C18.4678638,11.0682353 18.9255728,11.193065 19.5081115,11.193065 Z" id="K8S"></path>
                </g>
            </g>
        </g>
    </g>
</svg>