<?xml version="1.0" encoding="UTF-8"?>
<svg width="32px" height="33px" viewBox="0 0 32 33" version="1.1" xmlns="http://www.w3.org/2000/svg" xmlns:xlink="http://www.w3.org/1999/xlink">
    <title>编组</title>
    <g id="图标" stroke="none" stroke-width="1" fill="none" fill-rule="evenodd">
        <g id="画板" transform="translate(-28.000000, -416.000000)" fill="#C88322" fill-rule="nonzero">
            <g id="编组-27备份" transform="translate(28.000000, 416.980324)">
                <g id="编组" transform="translate(1.000000, 0.444444)">
                    <path d="M14.5833333,14.5833333 C10.5208333,14.5833333 7.29166667,11.3541667 7.29166667,7.29166667 C7.29166667,3.22916667 10.5208333,0 14.5833333,0 C18.6458333,0 21.875,3.22916667 21.875,7.29166667 C21.875,11.3541667 18.6458333,14.5833333 14.5833333,14.5833333 Z M14.5833333,2.08333333 C11.6666667,2.08333333 9.375,4.375 9.375,7.29166667 C9.375,10.2083333 11.6666667,12.5 14.5833333,12.5 C17.5,12.5 19.7916667,10.2083333 19.7916667,7.29166667 C19.7916667,4.375 17.5,2.08333333 14.5833333,2.08333333 Z M26.5625,30.2083333 L2.60416667,30.2083333 C1.14583333,30.2083333 0,29.0625 0,27.6041667 C0,22.5 4.89583333,15.1041667 12.5,15.1041667 L16.6666667,15.1041667 C24.2708333,15.1041667 29.1666667,22.5 29.1666667,27.6041667 C29.1666667,29.0625 28.0208333,30.2083333 26.5625,30.2083333 Z M12.5,17.1875 C6.25,17.1875 2.08333333,23.4375 2.08333333,27.6041667 C2.08333333,27.9166667 2.29166667,28.125 2.60416667,28.125 L26.5625,28.125 C26.875,28.125 27.0833333,27.9166667 27.0833333,27.6041667 C27.0833333,23.4375 22.9166667,17.1875 16.6666667,17.1875 L12.5,17.1875 Z" id="形状"></path>
                </g>
            </g>
        </g>
    </g>
</svg>