<?xml version="1.0" encoding="UTF-8"?>
<svg width="32px" height="33px" viewBox="0 0 32 33" version="1.1" xmlns="http://www.w3.org/2000/svg" xmlns:xlink="http://www.w3.org/1999/xlink">
    <title>编组</title>
    <g id="图标" stroke="none" stroke-width="1" fill="none" fill-rule="evenodd">
        <g id="画板" transform="translate(-28.000000, -360.000000)" fill="#7DCF50" fill-rule="nonzero">
            <g id="编组-2备份" transform="translate(28.000000, 360.939880)">
                <g id="编组" transform="translate(1.000000, 1.937500)">
                    <path d="M7.87113545,23.4993302 C6.11982142,22.4820757 4.32398854,20.9945891 3.83470139,19.1422878 L4.78955728,19.1422878 C5.06384168,19.1423107 5.3175186,18.9967183 5.45586016,18.7598776 C5.59420172,18.5230368 5.59640794,18.2305573 5.46165498,17.9916565 L3.46149222,14.5720234 C3.32289579,14.3335544 3.06790246,14.1868226 2.7920829,14.1868226 C2.51626333,14.1868226 2.26127,14.3335544 2.12267358,14.5720234 L0.114445635,17.9943449 C-0.0230449075,18.2335899 -0.0223044186,18.5280467 0.116387665,18.7665971 C0.255079749,19.0051475 0.5106076,19.1514722 0.786543333,19.150353 L1.71719045,19.1422878 C3.0423174,23.0284977 5.2633005,24.1647918 6.9104646,25.2181453 C8.44204501,26.1975835 10.0092946,26.6502267 11.836936,26.7078752 C12.3940006,26.7078752 13.1707437,26.6948983 13.1707437,26.045986 C13.1707437,25.3970737 12.5946086,25.2630559 12.3933652,25.2181453 C10.8874406,24.8820747 9.62244948,24.5165846 7.87113545,23.4993302 Z M21.7567818,3.23637404 C23.5080958,4.25362848 25.3039287,5.74111512 25.7932158,7.59341639 L24.8383599,7.59341639 C24.5640755,7.59339346 24.3103986,7.73898588 24.1720571,7.97582664 C24.0337155,8.21266739 24.0315093,8.50514691 24.1662622,8.74404766 L26.166425,12.1636808 C26.3050214,12.4021498 26.5600147,12.5488816 26.8358343,12.5488816 C27.1116539,12.5488816 27.3666472,12.4021498 27.5052436,12.1636808 L29.5134716,8.74135927 C29.6509621,8.50211434 29.6502216,8.20765748 29.5115295,7.96910709 C29.3728375,7.7305567 29.1173096,7.58423202 28.8413739,7.58535121 L27.9107268,7.59341639 C26.5855998,3.70720646 24.3646167,2.5709124 22.7174526,1.51755892 C21.1858722,0.538120652 19.6186226,0.0854774523 17.7909812,0.0278290351 C17.2339166,0.0278290351 16.4571735,0.0408059315 16.4571735,0.689718233 C16.4571735,1.33863053 17.0333086,1.47264833 17.234552,1.51755892 C18.7404766,1.85362945 20.0054677,2.21911959 21.7567818,3.23637404 Z M26.8182317,13.6418323 L16.8335482,13.6418323 C15.7873981,13.6388598 14.9360905,14.482953 14.9301675,15.5290905 L14.9301675,25.3954849 C14.9375649,26.4405706 15.7884406,27.2830337 16.8335482,27.2800548 L26.8182317,27.2800548 C27.8643818,27.2830272 28.7156894,26.4389341 28.7216124,25.3927965 L28.7216124,15.5264021 C28.714215,14.4813164 27.8633393,13.6388533 26.8182317,13.6418323 L26.8182317,13.6418323 Z M26.3352649,16.0200371 L26.3352649,24.9018499 L17.3165149,24.9018499 L17.3165149,16.0200371 L26.3352649,16.0200371 L26.3352649,16.0200371 Z M14.9462978,1.90970263 C14.9403749,0.863565065 14.0890672,0.0194718971 13.0429171,0.0224444089 L3.05285682,0.0224444089 C2.00775491,0.0209551916 1.15808469,0.86461642 1.1521645,1.90970263 L1.1521645,11.7760969 C1.15512999,12.8232854 2.00566526,13.6702116 3.05285682,13.6687546 L13.0375403,13.6687546 C13.5418524,13.6715834 14.0265678,13.4736167 14.384686,13.1185249 C14.7428042,12.763433 14.9448773,12.2804151 14.9462978,11.7760969 L14.9462978,1.90970263 Z M12.5631449,2.39435885 L12.5631449,11.2914407 L3.53531738,11.2914407 L3.53531738,2.39435885 L12.559956,2.39435885 L12.5631449,2.39435885 Z" id="形状"></path>
                </g>
            </g>
        </g>
    </g>
</svg>